<?xml version="1.0" encoding="utf-8"?><!-- Generated by IcoMoon.io --><!DOCTYPE svg PUBLIC "-//W3C//DTD SVG 1.1//EN" "http://www.w3.org/Graphics/SVG/1.1/DTD/svg11.dtd"><svg version="1.1" xmlns="http://www.w3.org/2000/svg" xmlns:xlink="http://www.w3.org/1999/xlink" width="24" height="24" viewBox="0 0 24 24" data-tags="th-menu"><g fill="#444" transform="scale(0.0234375 0.0234375)"><path d="M810.667 725.333h-597.333c-47.061 0-85.333 38.272-85.333 85.333s38.272 85.333 85.333 85.333h597.333c47.061 0 85.333-38.272 85.333-85.333s-38.272-85.333-85.333-85.333z" /><path d="M810.667 426.667h-597.333c-47.061 0-85.333 38.272-85.333 85.333s38.272 85.333 85.333 85.333h597.333c47.061 0 85.333-38.272 85.333-85.333s-38.272-85.333-85.333-85.333z" /><path d="M810.667 128h-597.333c-47.061 0-85.333 38.272-85.333 85.333s38.272 85.333 85.333 85.333h597.333c47.061 0 85.333-38.272 85.333-85.333s-38.272-85.333-85.333-85.333z" /></g></svg>